<?xml version="1.0" standalone="no"?>
<!DOCTYPE svg PUBLIC "-//W3C//DTD SVG 20010904//EN"
 "http://www.w3.org/TR/2001/REC-SVG-20010904/DTD/svg10.dtd">
<svg version="1.0" xmlns="http://www.w3.org/2000/svg"
 width="859.000000pt" height="859.000000pt" viewBox="0 0 859.000000 859.000000"
 preserveAspectRatio="xMidYMid meet">
<metadata>
Created by potrace 1.11, written by Peter Selinger 2001-2013
</metadata>
<g transform="translate(0.000000,859.000000) scale(0.100000,-0.100000)"
fill="#000000" stroke="none">
<path d="M2466 6563 c-3 -4 204 -217 461 -475 l468 -468 668 0 c577 0 678 -2
740 -16 147 -33 259 -120 325 -252 33 -68 37 -84 40 -172 3 -74 0 -111 -13
-152 -47 -144 -149 -252 -290 -304 -46 -17 -99 -19 -630 -25 -632 -7 -624 -6
-796 -69 -276 -100 -521 -330 -641 -600 -80 -182 -82 -196 -86 -640 l-3 -396
466 -464 c256 -256 470 -467 476 -469 8 -2 10 184 8 665 -4 625 -3 672 14 721
45 127 147 233 275 285 l57 23 465 -4 c410 -3 476 -1 550 14 564 114 997 537
1122 1095 20 92 23 130 22 310 -1 195 -2 210 -31 320 -74 282 -185 475 -382
670 -213 211 -445 335 -730 391 -91 17 -162 18 -1322 19 -674 0 -1229 -3
-1233 -7z"/>
</g>
</svg>
